<svg width="40" height="49" viewBox="0 0 40 49" fill="none" xmlns="http://www.w3.org/2000/svg">
<path d="M28.657 0.0574708C26.4312 0.320381 23.2812 2.32857 21.7172 4.4766C20.8148 5.70724 20.2843 6.88195 19.825 8.6496L19.5953 9.53343L19.6062 10.4732C19.6172 10.9878 19.6445 11.4689 19.6718 11.5472C19.7429 11.7318 19.8797 11.7598 20.8422 11.7654C21.6406 11.771 21.6898 11.7654 22.3734 11.5584C24.2 11.0158 25.5398 10.1991 26.4914 9.04117C26.7211 8.75588 27.0656 8.3755 27.2461 8.18531C27.8476 7.58118 28.6187 6.23866 29.0453 5.07514C29.4718 3.90603 29.6632 2.82083 29.7179 1.27693L29.7507 0.286818L29.6086 0.141378C29.45 -0.0208429 29.3625 -0.0264367 28.657 0.0574708Z" fill="#717171"/>
<path d="M28.1484 11.6199C27.0656 11.6759 24.1508 12.5037 22.0562 13.3428C20.7875 13.8519 20.7875 13.8519 20.5359 13.8966C20.0984 13.9693 19.0265 13.6505 17.1836 12.8897C16.2047 12.4926 15.1984 12.1905 13.7109 11.8437C13.0875 11.7038 12.0539 11.687 11.6054 11.8157C11.425 11.866 10.8562 11.9835 10.3422 12.073C9.23747 12.2744 8.61403 12.4702 7.78278 12.8897C5.27263 14.1427 3.56091 15.944 2.20466 18.7632C1.6031 20.0051 1.16013 21.2189 0.832002 22.5111C0.345283 24.4298 0.334346 28.1105 0.810127 30.3425C0.864814 30.6166 0.914033 30.941 0.914033 31.0697C0.914033 31.3382 0.963252 31.5396 1.42263 33.3911C1.84919 35.1028 1.80544 34.963 2.62028 37.0551C3.76325 39.9918 4.12419 40.6407 6.45935 43.9355C7.41638 45.2836 7.9031 45.8989 8.60856 46.6317C9.34685 47.4037 9.94294 47.8512 10.7851 48.2763C11.7367 48.7518 12.1523 48.8581 13.0273 48.8525C14.1484 48.8525 15.0508 48.6175 16.7679 47.8792C17.8508 47.4149 17.9218 47.3925 19.8906 46.9786C20.4812 46.8499 21.0281 46.8611 21.8593 47.0009C22.1437 47.0457 22.5703 47.1128 22.8 47.1464C23.2648 47.2135 23.7351 47.3701 24.9492 47.868C26.4148 48.4721 27.4484 48.7406 28.5312 48.8077C30.1062 48.9084 31.6265 48.1924 33.2508 46.5982C34.9078 44.9592 36.4554 42.716 38.0195 39.6898C38.4406 38.8731 39.1133 37.2005 39.2281 36.6971C39.2773 36.4957 39.3593 36.244 39.4195 36.1433C39.4742 36.0426 39.5234 35.9028 39.5234 35.8412C39.5234 35.6398 39.1242 35.321 38.4187 34.9574C37.0898 34.2582 35.7828 33.0611 34.9023 31.713C34.2734 30.7452 33.639 29.2964 33.4804 28.4406C33.2125 27.0309 33.1359 25.487 33.289 24.413C33.3273 24.1333 33.464 23.546 33.5953 23.0985C34.1586 21.1574 34.5468 20.3799 35.4273 19.4177C35.6953 19.1324 35.914 18.8695 35.914 18.8472C35.914 18.7521 37.2539 17.6053 37.582 17.4207C37.7625 17.3144 37.9922 17.1522 38.0906 17.0515C38.3914 16.7495 38.3476 16.632 37.5929 15.7258C36.5812 14.5119 35.307 13.5162 33.8086 12.7722C32.8734 12.308 32.2281 12.0786 31.3258 11.8884C30.4015 11.687 29.0234 11.5696 28.1484 11.6199Z" fill="#717171"/>
</svg>
